<svg width="30" height="29" viewBox="0 0 30 29" fill="none" xmlns="http://www.w3.org/2000/svg">
<path d="M15.2022 0.249756C7.35631 0.249756 0.996094 6.60997 0.996094 14.4559C0.996094 22.3018 7.35631 28.6621 15.2022 28.6621C23.0482 28.6621 29.4084 22.3018 29.4084 14.4559C29.4084 6.60997 23.0482 0.249756 15.2022 0.249756ZM11.7247 20.3441H8.84795V11.0864H11.7247V20.3441ZM10.2686 9.94989C9.35997 9.94989 8.77248 9.30618 8.77248 8.51004C8.77248 7.69763 9.37772 7.07315 10.3056 7.07315C11.2334 7.07315 11.8016 7.69763 11.8194 8.51004C11.8194 9.30618 11.2334 9.94989 10.2686 9.94989ZM22.2313 20.3441H19.3546V15.2136C19.3546 14.0194 18.9373 13.2084 17.897 13.2084C17.1023 13.2084 16.6303 13.7574 16.4216 14.2857C16.3447 14.4737 16.3254 14.74 16.3254 15.0049V20.3426H13.4472V14.0386C13.4472 12.8829 13.4102 11.9166 13.3717 11.0849H15.8711L16.0028 12.3709H16.0605C16.4394 11.7671 17.3672 10.8763 18.9195 10.8763C20.8122 10.8763 22.2313 12.1444 22.2313 14.8703V20.3441Z" fill="white"/>
</svg>
