<svg width="30" height="30" viewBox="0 0 30 30" fill="none" xmlns="http://www.w3.org/2000/svg">
<path fill-rule="evenodd" clip-rule="evenodd" d="M29.9228 15.1269C29.9228 23.1176 23.4442 29.5962 15.4536 29.5962C7.46297 29.5962 0.984375 23.1176 0.984375 15.1269C0.984375 7.13631 7.46297 0.657715 15.4536 0.657715C23.4442 0.657715 29.9228 7.13631 29.9228 15.1269ZM15.9721 11.3396C14.565 11.9244 11.7519 13.1362 7.53411 14.9738C6.84924 15.2463 6.48992 15.5128 6.45736 15.7732C6.4019 16.2145 6.95414 16.3882 7.70413 16.6233C7.80662 16.6559 7.91272 16.6884 8.02124 16.7246C8.76038 16.9645 9.75393 17.2455 10.27 17.2563C10.739 17.266 11.2624 17.0731 11.8399 16.6776C15.7804 14.0164 17.8145 12.672 17.9423 12.6431C18.0327 12.6226 18.1581 12.596 18.2425 12.672C18.327 12.7468 18.3185 12.889 18.3101 12.9276C18.2546 13.1603 16.0915 15.1728 14.9701 16.2145C14.6204 16.5389 14.3732 16.7692 14.3226 16.8223C14.2093 16.9392 14.0935 17.0514 13.9826 17.1587C13.2953 17.8194 12.7816 18.3162 14.0115 19.1265C14.6023 19.5159 15.075 19.8379 15.5464 20.1586C16.0613 20.5095 16.575 20.8592 17.2406 21.2957C17.4094 21.4066 17.5709 21.5211 17.7289 21.6333C18.3282 22.0613 18.8671 22.4448 19.5327 22.3845C19.9186 22.3483 20.3189 21.9854 20.5215 20.9014C21.0001 18.3379 21.9431 12.7865 22.1613 10.498C22.1746 10.308 22.1665 10.1171 22.1372 9.92887C22.1196 9.77686 22.0456 9.637 21.9298 9.537C21.7574 9.39592 21.4897 9.36578 21.3691 9.36819C20.8253 9.37784 19.9909 9.66843 15.9721 11.3396Z" fill="white"/>
</svg>
