<svg width="29" height="29" viewBox="0 0 29 29" fill="none" xmlns="http://www.w3.org/2000/svg">
<path d="M14.4427 0.0551758C6.49771 0.0551758 0.0556641 6.49722 0.0556641 14.4422C0.0556641 22.3872 6.49771 28.8292 14.4427 28.8292C22.3877 28.8292 28.8297 22.3872 28.8297 14.4422C28.8297 6.49722 22.3877 0.0551758 14.4427 0.0551758ZM21.3568 10.9C21.3664 11.051 21.3664 11.2083 21.3664 11.3625C21.3664 16.0768 17.7761 21.5072 11.2152 21.5072C9.19206 21.5072 7.31661 20.9196 5.73661 19.908C6.02563 19.9401 6.30182 19.9529 6.59726 19.9529C8.26718 19.9529 9.80223 19.3877 11.0258 18.4307C9.45861 18.3986 8.14194 17.371 7.69235 15.958C8.24149 16.0383 8.73605 16.0383 9.30125 15.8937C8.49431 15.7298 7.76902 15.2916 7.24858 14.6535C6.72815 14.0153 6.44468 13.2168 6.44633 12.3933V12.3484C6.9184 12.6149 7.47397 12.7787 8.05523 12.8012C7.5666 12.4755 7.16586 12.0343 6.88857 11.5167C6.61128 10.9991 6.46599 10.4211 6.4656 9.83385C6.4656 9.1691 6.63901 8.56214 6.95052 8.03548C7.84618 9.13806 8.96383 10.0398 10.2308 10.6822C11.4978 11.3245 12.8858 11.6931 14.3046 11.7639C13.8004 9.3393 15.6116 7.37714 17.789 7.37714C18.8166 7.37714 19.7415 7.80747 20.3934 8.50113C21.1994 8.35019 21.9702 8.04832 22.6574 7.64369C22.3909 8.46901 21.8321 9.16588 21.0903 9.60584C21.8096 9.52877 22.5033 9.32967 23.1455 9.05027C22.6606 9.7632 22.0537 10.3958 21.3568 10.9Z" fill="white"/>
</svg>
