<svg width="27" height="27" viewBox="0 0 27 27" fill="none" xmlns="http://www.w3.org/2000/svg">
<path d="M13.5 27C20.9558 27 27 20.9558 27 13.5C27 6.04416 20.9558 0 13.5 0C6.04416 0 0 6.04416 0 13.5C0 20.9558 6.04416 27 13.5 27Z" fill="#EDBC04"/>
<path d="M13.6784 9.35725L16.3882 12.0676C16.4857 12.1651 16.6438 12.1651 16.7412 12.0676L18.1695 10.639C18.267 10.5415 18.267 10.3835 18.1695 10.2861L13.6783 5.79383C13.5809 5.69633 13.4228 5.69633 13.3254 5.79383L8.83578 10.2844C8.73833 10.3819 8.73833 10.5399 8.83578 10.6373L10.2641 12.066C10.3616 12.1635 10.5196 12.1635 10.6171 12.066L13.3254 9.35725C13.4229 9.25975 13.5809 9.25975 13.6784 9.35725Z" fill="white"/>
<path d="M7.22413 11.8953L5.79574 13.324C5.6983 13.4215 5.6983 13.5795 5.79574 13.6769L7.22401 15.1056C7.32146 15.2031 7.47952 15.2031 7.57696 15.1056L9.00536 13.6769C9.1028 13.5794 9.1028 13.4214 9.00536 13.324L7.57702 11.8954C7.47964 11.7979 7.32164 11.7979 7.22413 11.8953Z" fill="white"/>
<path d="M13.6768 21.2072L18.1688 16.7142C18.2662 16.6167 18.2662 16.4586 18.1687 16.3612L16.7395 14.9334C16.642 14.836 16.4841 14.836 16.3866 14.9335L13.6768 17.6438C13.5793 17.7413 13.4213 17.7413 13.3238 17.6438L10.6153 14.9348C10.5179 14.8374 10.3601 14.8373 10.2626 14.9346L8.83213 16.3613C8.73444 16.4588 8.73432 16.6169 8.83189 16.7145L13.3238 21.2072C13.4213 21.3047 13.5793 21.3047 13.6768 21.2072Z" fill="white"/>
<path d="M19.4243 11.8963L17.9959 13.325C17.8985 13.4225 17.8985 13.5805 17.9959 13.6779L19.4243 15.1065C19.5217 15.2041 19.6798 15.2041 19.7772 15.1065L21.2056 13.6779C21.3031 13.5804 21.3031 13.4224 21.2056 13.325L19.7773 11.8963C19.6798 11.7989 19.5218 11.7989 19.4243 11.8963Z" fill="white"/>
<path d="M15.1338 13.3248L13.6784 11.869C13.5809 11.7715 13.4229 11.7715 13.3254 11.869L11.87 13.3248C11.7725 13.4222 11.7725 13.5802 11.87 13.6777L13.3254 15.1336C13.4229 15.2311 13.5809 15.2311 13.6784 15.1336L15.1338 13.6777C15.2313 13.5802 15.2313 13.4222 15.1338 13.3248Z" fill="white"/>
</svg>
