<svg width="28" height="28" viewBox="0 0 28 28" fill="none" xmlns="http://www.w3.org/2000/svg">
<path d="M14 28C21.732 28 28 21.732 28 14C28 6.26801 21.732 0 14 0C6.26801 0 0 6.26801 0 14C0 21.732 6.26801 28 14 28Z" fill="#4D4D4D"/>
<path d="M14.2501 9.70336L17.0603 12.5141C17.1614 12.6152 17.3253 12.6152 17.4263 12.5141L18.9076 11.0326C19.0086 10.9315 19.0086 10.7676 18.9076 10.6666L14.25 6.00796C14.149 5.90685 13.985 5.90685 13.884 6.00796L9.22813 10.6649C9.12708 10.7659 9.12708 10.9298 9.22813 11.0309L10.7094 12.5124C10.8104 12.6135 10.9743 12.6135 11.0754 12.5124L13.884 9.70336C13.9852 9.60225 14.149 9.60225 14.2501 9.70336V9.70336Z" fill="#EDBC04"/>
<path d="M7.55709 12.3353L6.07579 13.8169C5.97474 13.918 5.97474 14.0818 6.07579 14.1829L7.55696 15.6644C7.65802 15.7655 7.82193 15.7655 7.92299 15.6644L9.40429 14.1828C9.50534 14.0818 9.50534 13.9179 9.40429 13.8169L7.92305 12.3354C7.82206 12.2343 7.6582 12.2343 7.55709 12.3353Z" fill="#EDBC04"/>
<path d="M14.2486 21.9921L18.9069 17.3327C19.008 17.2316 19.008 17.0676 18.9068 16.9666L17.4248 15.4859C17.3237 15.3849 17.1599 15.3849 17.0588 15.486L14.2486 18.2967C14.1475 18.3978 13.9836 18.3978 13.8826 18.2967L11.0737 15.4874C10.9727 15.3864 10.809 15.3863 10.7079 15.4871L9.22449 16.9667C9.12319 17.0678 9.12306 17.2318 9.22424 17.3329L13.8826 21.9921C13.9837 22.0932 14.1475 22.0932 14.2486 21.9921Z" fill="#EDBC04"/>
<path d="M20.2094 12.336L18.7281 13.8177C18.6271 13.9187 18.6271 14.0826 18.7281 14.1836L20.2094 15.6652C20.3104 15.7663 20.4743 15.7663 20.5754 15.6652L22.0567 14.1836C22.1577 14.0825 22.1577 13.9186 22.0567 13.8176L20.5755 12.336C20.4743 12.235 20.3105 12.235 20.2094 12.336Z" fill="#EDBC04"/>
<path d="M15.7594 13.817L14.25 12.3073C14.149 12.2062 13.985 12.2062 13.884 12.3073L12.3746 13.817C12.2736 13.918 12.2736 14.0819 12.3746 14.1829L13.884 15.6927C13.985 15.7939 14.149 15.7939 14.25 15.6927L15.7594 14.1829C15.8604 14.0818 15.8604 13.918 15.7594 13.817Z" fill="#EDBC04"/>
</svg>
