<svg width="26" height="25" viewBox="0 0 26 25" fill="none" xmlns="http://www.w3.org/2000/svg">
<path d="M13 25C20.1797 25 26 19.4036 26 12.5C26 5.59644 20.1797 0 13 0C5.8203 0 0 5.59644 0 12.5C0 19.4036 5.8203 25 13 25Z" fill="#6398FF"/>
<path d="M12.8482 5.96872L9.1972 11.6302C9.15313 11.6985 9.17461 11.7883 9.24535 11.8312L12.9698 14.0931C13.0201 14.1236 13.0843 14.1232 13.1341 14.0921L16.7576 11.8322C16.8274 11.7886 16.848 11.6992 16.8037 11.6314L13.1068 5.96799C13.0468 5.87624 12.9076 5.87663 12.8482 5.96872Z" fill="white"/>
<path d="M13.1045 16.0523L16.3047 14.1384C16.4435 14.0554 16.6023 14.2121 16.5124 14.3433L13.288 19.0529C13.2292 19.1387 13.0992 19.1412 13.0369 19.0577L9.54779 14.3764C9.45095 14.2465 9.60974 14.0825 9.75137 14.1662L12.9442 16.0527C12.9934 16.0818 13.0555 16.0816 13.1045 16.0523Z" fill="white"/>
</svg>
