<svg width="27" height="27" viewBox="0 0 27 27" fill="none" xmlns="http://www.w3.org/2000/svg">
<path d="M13.5 27C20.9558 27 27 20.9558 27 13.5C27 6.04416 20.9558 0 13.5 0C6.04416 0 0 6.04416 0 13.5C0 20.9558 6.04416 27 13.5 27Z" fill="#784FDD"/>
<path d="M17.4282 10.8633C17.1436 10.6925 16.7735 10.6925 16.4604 10.8633L14.24 12.1728L12.7313 13.0268L10.511 14.3362C10.2263 14.507 9.85628 14.507 9.54316 14.3362L7.77826 13.3114C7.4936 13.1406 7.29434 12.8275 7.29434 12.4859V10.4648C7.29434 10.1232 7.46514 9.8101 7.77826 9.6393L9.51469 8.64299C9.79935 8.47219 10.1694 8.47219 10.4825 8.64299L12.219 9.6393C12.5036 9.8101 12.7029 10.1232 12.7029 10.4648V11.7743L14.2116 10.8918V9.58237C14.2116 9.24078 14.0408 8.92765 13.7277 8.75685L10.511 6.8781C10.2263 6.7073 9.85628 6.7073 9.54316 6.8781L6.26957 8.75685C5.95644 8.92765 5.78564 9.24078 5.78564 9.58237V13.3683C5.78564 13.7099 5.95644 14.0231 6.26957 14.1939L9.54316 16.0726C9.82782 16.2434 10.1979 16.2434 10.511 16.0726L12.7313 14.7916L14.24 13.9092L16.4604 12.6282C16.7451 12.4574 17.1151 12.4574 17.4282 12.6282L19.1647 13.6245C19.4493 13.7953 19.6486 14.1085 19.6486 14.4501V16.4711C19.6486 16.8127 19.4778 17.1259 19.1647 17.2967L17.4282 18.3214C17.1436 18.4922 16.7735 18.4922 16.4604 18.3214L14.724 17.3251C14.4393 17.1543 14.24 16.8412 14.24 16.4996V15.1902L12.7313 16.0726V17.3821C12.7313 17.7236 12.9021 18.0368 13.2153 18.2076L16.4889 20.0863C16.7735 20.2571 17.1436 20.2571 17.4567 20.0863L20.7303 18.2076C21.015 18.0368 21.2142 17.7236 21.2142 17.3821V13.5961C21.2142 13.2545 21.0434 12.9414 20.7303 12.7706L17.4282 10.8633Z" fill="white"/>
</svg>
