<svg width="57" height="57" viewBox="0 0 57 57" fill="none" xmlns="http://www.w3.org/2000/svg">
<path d="M4.75 14.25C4.75 11.7304 5.75089 9.31408 7.53249 7.53249C9.31408 5.75089 11.7304 4.75 14.25 4.75H42.75C45.2696 4.75 47.6859 5.75089 49.4675 7.53249C51.2491 9.31408 52.25 11.7304 52.25 14.25V26.125H4.75V14.25Z" stroke="black" stroke-width="2" stroke-linecap="round" stroke-linejoin="round"/>
<path d="M43.9375 39.1875H36.8125" stroke="black" stroke-width="2" stroke-linecap="round"/>
<path d="M28.5 26.125H52.25V42.75C52.25 45.2696 51.2491 47.6859 49.4675 49.4675C47.6859 51.2491 45.2696 52.25 42.75 52.25H28.5V26.125ZM28.5 26.125H4.75V42.75C4.75 45.2696 5.75089 47.6859 7.53249 49.4675C9.31408 51.2491 11.7304 52.25 14.25 52.25H28.5V26.125Z" stroke="black" stroke-width="2" stroke-linecap="round" stroke-linejoin="round"/>
<path d="M13.0625 42.75L16.625 39.1875M16.625 39.1875L20.1875 35.625M16.625 39.1875L20.1875 42.75M16.625 39.1875L13.0625 35.625" stroke="black" stroke-width="2" stroke-linecap="round"/>
</svg>
