<svg width="35" height="33" viewBox="0 0 35 33" fill="none" xmlns="http://www.w3.org/2000/svg">
<path d="M17.1266 2.0625C8.85084 2.0625 2.14062 8.52715 2.14062 16.5C2.14062 24.4729 8.85084 30.9375 17.1266 30.9375C25.4023 30.9375 32.1125 24.4729 32.1125 16.5C32.1125 8.52715 25.4023 2.0625 17.1266 2.0625ZM17.1266 28.4883C10.2558 28.4883 4.68288 23.1193 4.68288 16.5C4.68288 9.88066 10.2558 4.51172 17.1266 4.51172C23.9973 4.51172 29.5702 9.88066 29.5702 16.5C29.5702 23.1193 23.9973 28.4883 17.1266 28.4883Z" fill="black"/>
<path d="M15.521 10.8281C15.521 11.2384 15.6902 11.6318 15.9913 11.9219C16.2924 12.212 16.7008 12.375 17.1266 12.375C17.5525 12.375 17.9609 12.212 18.262 11.9219C18.5631 11.6318 18.7323 11.2384 18.7323 10.8281C18.7323 10.4179 18.5631 10.0244 18.262 9.73432C17.9609 9.44422 17.5525 9.28125 17.1266 9.28125C16.7008 9.28125 16.2924 9.44422 15.9913 9.73432C15.6902 10.0244 15.521 10.4179 15.521 10.8281ZM17.9294 14.4375H16.3238C16.1766 14.4375 16.0562 14.5535 16.0562 14.6953V23.4609C16.0562 23.6027 16.1766 23.7188 16.3238 23.7188H17.9294C18.0766 23.7188 18.1971 23.6027 18.1971 23.4609V14.6953C18.1971 14.5535 18.0766 14.4375 17.9294 14.4375Z" fill="black"/>
</svg>
