<svg width="152" height="28" viewBox="0 0 152 28" fill="none" xmlns="http://www.w3.org/2000/svg">
<path d="M35.0488 6.81003H38.5093V22.1826H35.0488V6.81003Z" fill="white"/>
<path d="M41.2912 16.3486C41.2912 15.5056 41.4243 14.7144 41.6905 13.975C41.9714 13.2208 42.3707 12.5701 42.8883 12.023C43.4059 11.461 44.0344 11.0173 44.7738 10.692C45.5133 10.3667 46.3562 10.204 47.3027 10.204C47.9238 10.204 48.4931 10.2631 49.0107 10.3814C49.5283 10.485 50.0311 10.6402 50.5191 10.8473L49.8315 13.487C49.5209 13.3687 49.1808 13.2652 48.8111 13.1765C48.4414 13.0877 48.0273 13.0434 47.5689 13.0434C46.5928 13.0434 45.8608 13.3465 45.3728 13.9528C44.8995 14.5592 44.6629 15.3577 44.6629 16.3486C44.6629 17.3985 44.8848 18.2119 45.3284 18.7887C45.7868 19.3654 46.578 19.6538 47.702 19.6538C48.1012 19.6538 48.5301 19.6168 48.9885 19.5429C49.447 19.4689 49.8685 19.3506 50.253 19.188L50.7188 21.8942C50.3343 22.0569 49.8537 22.1974 49.2769 22.3157C48.7002 22.434 48.0643 22.4932 47.3692 22.4932C46.3044 22.4932 45.3876 22.3379 44.6186 22.0273C43.8496 21.702 43.2137 21.2657 42.7109 20.7186C42.2228 20.1714 41.8605 19.5281 41.6239 18.7887C41.4021 18.0345 41.2912 17.2211 41.2912 16.3486Z" fill="white"/>
<path d="M51.8193 16.4373C51.8193 15.4021 51.9745 14.5 52.2851 13.731C52.6104 12.9472 53.0319 12.2965 53.5495 11.7789C54.0671 11.2614 54.6586 10.8695 55.3241 10.6033C56.0044 10.3371 56.6994 10.204 57.4093 10.204C59.0656 10.204 60.3744 10.7142 61.3356 11.7346C62.2969 12.7402 62.7775 14.2264 62.7775 16.1933C62.7775 16.3855 62.7701 16.6 62.7553 16.8366C62.7405 17.0584 62.7257 17.2581 62.7109 17.4355H55.2132C55.2871 18.1158 55.6051 18.6556 56.1671 19.0549C56.729 19.4541 57.4832 19.6538 58.4297 19.6538C59.036 19.6538 59.6275 19.602 60.2043 19.4985C60.7958 19.3802 61.2765 19.2397 61.6462 19.077L62.0898 21.7611C61.9124 21.8499 61.6757 21.9386 61.38 22.0273C61.0842 22.1161 60.7515 22.19 60.3818 22.2492C60.0268 22.3231 59.6423 22.3823 59.2283 22.4266C58.8142 22.471 58.4001 22.4932 57.986 22.4932C56.9361 22.4932 56.0192 22.3379 55.2354 22.0273C54.4664 21.7168 53.8231 21.2953 53.3055 20.7629C52.8027 20.2157 52.4256 19.5724 52.1742 18.833C51.9376 18.0936 51.8193 17.295 51.8193 16.4373ZM59.5832 15.1729C59.5684 14.8919 59.5166 14.6183 59.4279 14.3521C59.354 14.0859 59.2283 13.8493 59.0508 13.6423C58.8881 13.4353 58.6737 13.2652 58.4075 13.1321C58.1561 12.999 57.8382 12.9324 57.4537 12.9324C57.0839 12.9324 56.766 12.999 56.4998 13.1321C56.2336 13.2504 56.0118 13.4131 55.8343 13.6201C55.6569 13.8271 55.5164 14.0712 55.4128 14.3521C55.3241 14.6183 55.2576 14.8919 55.2132 15.1729H59.5832Z" fill="white"/>
<path d="M65.2172 7.60861L68.5224 7.07622V10.5145H72.4931V13.2652H68.5224V17.369C68.5224 18.064 68.6408 18.6186 68.8774 19.0327C69.1288 19.4467 69.6242 19.6538 70.3636 19.6538C70.7185 19.6538 71.0808 19.6242 71.4506 19.5651C71.8351 19.4911 72.1826 19.395 72.4931 19.2767L72.959 21.8499C72.5597 22.0125 72.116 22.153 71.628 22.2713C71.14 22.3896 70.5411 22.4488 69.8312 22.4488C68.9291 22.4488 68.1823 22.3305 67.5908 22.0939C66.9992 21.8425 66.526 21.5023 66.1711 21.0735C65.8162 20.6298 65.5648 20.0974 65.4169 19.4763C65.2838 18.8552 65.2172 18.1675 65.2172 17.4133V7.60861Z" fill="white"/>
<path d="M74.1969 16.4373C74.1969 15.4021 74.3522 14.5 74.6627 13.731C74.9881 12.9472 75.4095 12.2965 75.9271 11.7789C76.4447 11.2614 77.0362 10.8695 77.7017 10.6033C78.382 10.3371 79.0771 10.204 79.7869 10.204C81.4432 10.204 82.752 10.7142 83.7132 11.7346C84.6745 12.7402 85.1551 14.2264 85.1551 16.1933C85.1551 16.3855 85.1477 16.6 85.1329 16.8366C85.1181 17.0584 85.1033 17.2581 85.0886 17.4355H77.5908C77.6648 18.1158 77.9827 18.6556 78.5447 19.0549C79.1066 19.4541 79.8608 19.6538 80.8073 19.6538C81.4136 19.6538 82.0052 19.602 82.5819 19.4985C83.1735 19.3802 83.6541 19.2397 84.0238 19.077L84.4674 21.7611C84.29 21.8499 84.0534 21.9386 83.7576 22.0273C83.4618 22.1161 83.1291 22.19 82.7594 22.2492C82.4045 22.3231 82.0199 22.3823 81.6059 22.4266C81.1918 22.471 80.7777 22.4932 80.3636 22.4932C79.3137 22.4932 78.3968 22.3379 77.613 22.0273C76.844 21.7168 76.2007 21.2953 75.6831 20.7629C75.1803 20.2157 74.8032 19.5724 74.5518 18.833C74.3152 18.0936 74.1969 17.295 74.1969 16.4373ZM81.9608 15.1729C81.946 14.8919 81.8942 14.6183 81.8055 14.3521C81.7316 14.0859 81.6059 13.8493 81.4284 13.6423C81.2657 13.4353 81.0513 13.2652 80.7851 13.1321C80.5337 12.999 80.2158 12.9324 79.8313 12.9324C79.4616 12.9324 79.1436 12.999 78.8774 13.1321C78.6112 13.2504 78.3894 13.4131 78.2119 13.6201C78.0345 13.8271 77.894 14.0712 77.7905 14.3521C77.7017 14.6183 77.6352 14.8919 77.5908 15.1729H81.9608Z" fill="white"/>
<path d="M92.1645 19.8756C92.4898 19.8756 92.8004 19.8682 93.0961 19.8534C93.3919 19.8386 93.6285 19.8165 93.806 19.7869V17.2802C93.6729 17.2507 93.4732 17.2211 93.2071 17.1915C92.9409 17.1619 92.6969 17.1471 92.475 17.1471C92.1645 17.1471 91.8687 17.1693 91.5877 17.2137C91.3215 17.2433 91.0849 17.3098 90.8779 17.4133C90.6708 17.5169 90.5082 17.6573 90.3899 17.8348C90.2716 18.0123 90.2124 18.2341 90.2124 18.5003C90.2124 19.0179 90.3825 19.3802 90.7226 19.5872C91.0775 19.7795 91.5581 19.8756 92.1645 19.8756ZM91.8983 10.204C92.8743 10.204 93.6877 10.3149 94.3384 10.5367C94.9891 10.7585 95.5067 11.0765 95.8912 11.4906C96.2904 11.9046 96.5714 12.4075 96.7341 12.999C96.8968 13.5905 96.9781 14.2486 96.9781 14.9732V21.8499C96.5049 21.9534 95.8468 22.0717 95.0038 22.2048C94.1609 22.3527 93.1405 22.4266 91.9426 22.4266C91.1884 22.4266 90.5008 22.3601 89.8797 22.227C89.2733 22.0939 88.7483 21.8794 88.3047 21.5837C87.861 21.2731 87.5209 20.8738 87.2843 20.3858C87.0477 19.8978 86.9294 19.2989 86.9294 18.589C86.9294 17.9088 87.0625 17.332 87.3287 16.8588C87.6096 16.3855 87.9793 16.0084 88.4378 15.7275C88.8962 15.4465 89.4212 15.2468 90.0128 15.1285C90.6043 14.9954 91.218 14.9289 91.8539 14.9289C92.2828 14.9289 92.6599 14.9511 92.9852 14.9954C93.3254 15.025 93.599 15.0694 93.806 15.1285V14.818C93.806 14.256 93.6359 13.805 93.2958 13.4648C92.9557 13.1247 92.3641 12.9546 91.5212 12.9546C90.9592 12.9546 90.4046 12.999 89.8575 13.0877C89.3103 13.1617 88.8371 13.2726 88.4378 13.4205L88.0163 10.7585C88.2086 10.6994 88.4452 10.6402 88.7262 10.5811C89.0219 10.5071 89.3399 10.448 89.68 10.4036C90.0201 10.3445 90.3751 10.3001 90.7448 10.2705C91.1293 10.2262 91.5138 10.204 91.8983 10.204Z" fill="white"/>
<path d="M115.788 19.2101V22.1826H105.518V6.81003H108.978V19.2101H115.788Z" fill="white"/>
<path d="M122.514 19.8756C122.839 19.8756 123.15 19.8682 123.446 19.8534C123.741 19.8386 123.978 19.8165 124.155 19.7869V17.2802C124.022 17.2507 123.823 17.2211 123.557 17.1915C123.29 17.1619 123.046 17.1471 122.825 17.1471C122.514 17.1471 122.218 17.1693 121.937 17.2137C121.671 17.2433 121.434 17.3098 121.227 17.4133C121.02 17.5169 120.858 17.6573 120.739 17.8348C120.621 18.0123 120.562 18.2341 120.562 18.5003C120.562 19.0179 120.732 19.3802 121.072 19.5872C121.427 19.7795 121.908 19.8756 122.514 19.8756ZM122.248 10.204C123.224 10.204 124.037 10.3149 124.688 10.5367C125.339 10.7585 125.856 11.0765 126.241 11.4906C126.64 11.9046 126.921 12.4075 127.084 12.999C127.246 13.5905 127.328 14.2486 127.328 14.9732V21.8499C126.854 21.9534 126.196 22.0717 125.353 22.2048C124.51 22.3527 123.49 22.4266 122.292 22.4266C121.538 22.4266 120.85 22.3601 120.229 22.227C119.623 22.0939 119.098 21.8794 118.654 21.5837C118.211 21.2731 117.87 20.8738 117.634 20.3858C117.397 19.8978 117.279 19.2989 117.279 18.589C117.279 17.9088 117.412 17.332 117.678 16.8588C117.959 16.3855 118.329 16.0084 118.787 15.7275C119.246 15.4465 119.771 15.2468 120.362 15.1285C120.954 14.9954 121.568 14.9289 122.203 14.9289C122.632 14.9289 123.009 14.9511 123.335 14.9954C123.675 15.025 123.948 15.0694 124.155 15.1285V14.818C124.155 14.256 123.985 13.805 123.645 13.4648C123.305 13.1247 122.714 12.9546 121.871 12.9546C121.309 12.9546 120.754 12.999 120.207 13.0877C119.66 13.1617 119.187 13.2726 118.787 13.4205L118.366 10.7585C118.558 10.6994 118.795 10.6402 119.076 10.5811C119.371 10.5071 119.689 10.448 120.03 10.4036C120.37 10.3445 120.725 10.3001 121.094 10.2705C121.479 10.2262 121.863 10.204 122.248 10.204Z" fill="white"/>
<path d="M137.792 16.2598C137.792 14.1303 137.008 13.0655 135.441 13.0655C135.1 13.0655 134.76 13.1099 134.42 13.1986C134.095 13.2874 133.829 13.3983 133.622 13.5314V19.5429C133.784 19.5724 133.991 19.602 134.243 19.6316C134.494 19.6464 134.768 19.6538 135.063 19.6538C135.966 19.6538 136.646 19.3432 137.104 18.7221C137.563 18.101 137.792 17.2802 137.792 16.2598ZM141.164 16.3486C141.164 17.2802 141.023 18.1232 140.742 18.8774C140.476 19.6316 140.084 20.2749 139.567 20.8073C139.049 21.3397 138.413 21.7537 137.659 22.0495C136.905 22.3305 136.047 22.471 135.086 22.471C134.686 22.471 134.265 22.4488 133.821 22.4044C133.392 22.3749 132.964 22.3305 132.535 22.2713C132.121 22.2122 131.721 22.1456 131.337 22.0717C130.952 21.983 130.612 21.8942 130.316 21.8055V5.50126L133.622 4.96887V10.7807C133.991 10.6181 134.376 10.4924 134.775 10.4036C135.174 10.3149 135.603 10.2705 136.062 10.2705C136.89 10.2705 137.622 10.4184 138.258 10.7142C138.894 10.9952 139.426 11.4018 139.855 11.9342C140.284 12.4666 140.609 13.1099 140.831 13.8641C141.053 14.6035 141.164 15.4317 141.164 16.3486Z" fill="white"/>
<path d="M147.054 19.8091C147.66 19.8091 148.089 19.7499 148.34 19.6316C148.592 19.5133 148.717 19.2841 148.717 18.9439C148.717 18.6777 148.555 18.4485 148.229 18.2563C147.904 18.0492 147.408 17.82 146.743 17.5686C146.225 17.3764 145.752 17.1767 145.323 16.9697C144.909 16.7626 144.554 16.5186 144.259 16.2377C143.963 15.9419 143.734 15.5944 143.571 15.1951C143.408 14.7958 143.327 14.3152 143.327 13.7532C143.327 12.6589 143.734 11.7937 144.547 11.1578C145.36 10.5219 146.477 10.204 147.896 10.204C148.606 10.204 149.287 10.2705 149.937 10.4036C150.588 10.5219 151.106 10.655 151.49 10.8029L150.913 13.3761C150.529 13.243 150.107 13.1247 149.649 13.0212C149.205 12.9177 148.702 12.8659 148.14 12.8659C147.105 12.8659 146.588 13.1543 146.588 13.731C146.588 13.8641 146.61 13.9824 146.654 14.0859C146.699 14.1895 146.787 14.293 146.92 14.3965C147.054 14.4852 147.231 14.5887 147.453 14.7071C147.689 14.8106 147.985 14.9289 148.34 15.062C149.065 15.3282 149.664 15.5944 150.137 15.8606C150.61 16.112 150.98 16.3929 151.246 16.7035C151.527 16.9993 151.719 17.332 151.823 17.7017C151.941 18.0714 152 18.5003 152 18.9883C152 20.1418 151.564 21.0143 150.691 21.6059C149.834 22.1974 148.614 22.4932 147.031 22.4932C145.996 22.4932 145.131 22.4044 144.436 22.227C143.756 22.0495 143.282 21.9016 143.016 21.7833L143.571 19.0992C144.133 19.321 144.71 19.4985 145.301 19.6316C145.893 19.7499 146.477 19.8091 147.054 19.8091Z" fill="white"/>
<path d="M13.6724 27.3447C21.2234 27.3447 27.3447 21.2234 27.3447 13.6724C27.3447 6.12133 21.2234 0 13.6724 0C6.12133 0 0 6.12133 0 13.6724C0 21.2234 6.12133 27.3447 13.6724 27.3447Z" fill="white"/>
<path fill-rule="evenodd" clip-rule="evenodd" d="M13.0734 15.4325H17.8242C18.2168 15.4325 18.5421 15.7402 18.5421 16.1504V20.9012C18.5421 21.2938 18.2344 21.6191 17.8242 21.6191H13.0734C12.6808 21.6191 12.3555 21.3115 12.3555 20.9012V16.1162C12.3555 15.7402 12.6466 15.4325 13.0734 15.4325Z" fill="#00C7F4"/>
<path fill-rule="evenodd" clip-rule="evenodd" d="M15.4147 12.3215L18.2852 8.51029C18.5411 8.20262 18.969 8.1177 19.2766 8.37355L23.0879 11.2441C23.3955 11.5 23.4805 11.9278 23.2246 12.2355L20.3541 16.0126C20.0982 16.3202 19.6703 16.4052 19.3626 16.1493L15.5514 13.2788C15.2437 13.0571 15.193 12.6292 15.4147 12.3215Z" fill="#00C7F4"/>
<path fill-rule="evenodd" clip-rule="evenodd" d="M7.39995 14.441L11.6556 16.5947C12.014 16.7657 12.1508 17.2101 11.9633 17.5343L9.80954 21.79C9.63861 22.1484 9.19419 22.2851 8.86997 22.0977L4.6143 19.9439C4.2559 19.773 4.11915 19.3285 4.30662 19.0043L6.46037 14.7487C6.6313 14.3892 7.04154 14.2524 7.39995 14.441Z" fill="#00C7F4"/>
</svg>
