<svg width="180" height="37" viewBox="0 0 180 37" fill="none" xmlns="http://www.w3.org/2000/svg">
<circle cx="16" cy="18" r="16" fill="#00C7F4"/>
<rect x="15" y="20" width="7" height="7" rx="0.5" fill="white"/>
<rect x="22.2178" y="11" width="7" height="7" rx="0.5" transform="rotate(37.0513 22.2178 11)" fill="white"/>
<rect x="8.6748" y="18" width="7" height="7" rx="0.5" transform="rotate(31.6649 8.6748 18)" fill="white"/>
<path d="M41.768 27V8.8H45.096V27H41.768ZM54.3435 27.312C53.0261 27.312 51.8648 27.026 50.8595 26.454C49.8541 25.882 49.0568 25.0847 48.4675 24.062C47.8955 23.0393 47.6095 21.8693 47.6095 20.552C47.6095 19.2347 47.8955 18.0647 48.4675 17.042C49.0568 16.0193 49.8541 15.222 50.8595 14.65C51.8648 14.078 53.0261 13.792 54.3435 13.792C55.9901 13.792 57.3768 14.2253 58.5035 15.092C59.6301 15.9413 60.3495 17.12 60.6615 18.628H57.1515C56.9781 18.004 56.6315 17.5187 56.1115 17.172C55.6088 16.808 55.0108 16.626 54.3175 16.626C53.3988 16.626 52.6188 16.9727 51.9775 17.666C51.3361 18.3593 51.0155 19.3213 51.0155 20.552C51.0155 21.7827 51.3361 22.7447 51.9775 23.438C52.6188 24.1313 53.3988 24.478 54.3175 24.478C55.0108 24.478 55.6088 24.3047 56.1115 23.958C56.6315 23.6113 56.9781 23.1173 57.1515 22.476H60.6615C60.3495 23.932 59.6301 25.102 58.5035 25.986C57.3768 26.87 55.9901 27.312 54.3435 27.312ZM69.3613 27.312C68.0613 27.312 66.9086 27.0347 65.9033 26.48C64.898 25.9253 64.1093 25.1453 63.5373 24.14C62.9653 23.1347 62.6793 21.9733 62.6793 20.656C62.6793 19.3213 62.9566 18.134 63.5113 17.094C64.0833 16.054 64.8633 15.248 65.8513 14.676C66.8566 14.0867 68.0353 13.792 69.3873 13.792C70.6526 13.792 71.7706 14.0693 72.7413 14.624C73.712 15.1787 74.466 15.9413 75.0033 16.912C75.558 17.8653 75.8353 18.9313 75.8353 20.11C75.8353 20.3007 75.8266 20.5 75.8093 20.708C75.8093 20.916 75.8006 21.1327 75.7833 21.358H65.9813C66.0506 22.3633 66.3973 23.152 67.0213 23.724C67.6626 24.296 68.434 24.582 69.3353 24.582C70.0113 24.582 70.5746 24.4347 71.0253 24.14C71.4933 23.828 71.84 23.4293 72.0653 22.944H75.4453C75.2026 23.7587 74.7953 24.504 74.2233 25.18C73.6686 25.8387 72.9753 26.3587 72.1433 26.74C71.3286 27.1213 70.4013 27.312 69.3613 27.312ZM69.3873 16.496C68.5726 16.496 67.8533 16.73 67.2293 17.198C66.6053 17.6487 66.2066 18.342 66.0333 19.278H72.4553C72.4033 18.4287 72.0913 17.7527 71.5193 17.25C70.9473 16.7473 70.2366 16.496 69.3873 16.496ZM83.6319 27C82.2799 27 81.1965 26.6707 80.3819 26.012C79.5672 25.3533 79.1599 24.1833 79.1599 22.502V16.886H76.9499V14.104H79.1599L79.5499 10.646H82.4879V14.104H85.9719V16.886H82.4879V22.528C82.4879 23.152 82.6179 23.5853 82.8779 23.828C83.1552 24.0533 83.6232 24.166 84.2819 24.166H85.8939V27H83.6319ZM94.2451 27.312C92.9451 27.312 91.7925 27.0347 90.7871 26.48C89.7818 25.9253 88.9931 25.1453 88.4211 24.14C87.8491 23.1347 87.5631 21.9733 87.5631 20.656C87.5631 19.3213 87.8405 18.134 88.3951 17.094C88.9671 16.054 89.7471 15.248 90.7351 14.676C91.7405 14.0867 92.9191 13.792 94.2711 13.792C95.5365 13.792 96.6545 14.0693 97.6251 14.624C98.5958 15.1787 99.3498 15.9413 99.8871 16.912C100.442 17.8653 100.719 18.9313 100.719 20.11C100.719 20.3007 100.71 20.5 100.693 20.708C100.693 20.916 100.684 21.1327 100.667 21.358H90.8651C90.9345 22.3633 91.2811 23.152 91.9051 23.724C92.5465 24.296 93.3178 24.582 94.2191 24.582C94.8951 24.582 95.4585 24.4347 95.9091 24.14C96.3771 23.828 96.7238 23.4293 96.9491 22.944H100.329C100.086 23.7587 99.6791 24.504 99.1071 25.18C98.5525 25.8387 97.8591 26.3587 97.0271 26.74C96.2125 27.1213 95.2851 27.312 94.2451 27.312ZM94.2711 16.496C93.4565 16.496 92.7371 16.73 92.1131 17.198C91.4891 17.6487 91.0905 18.342 90.9171 19.278H97.3391C97.2871 18.4287 96.9751 17.7527 96.4031 17.25C95.8311 16.7473 95.1205 16.496 94.2711 16.496ZM107.444 27.312C106.335 27.312 105.425 27.1387 104.714 26.792C104.004 26.428 103.475 25.9513 103.128 25.362C102.782 24.7727 102.608 24.1227 102.608 23.412C102.608 22.216 103.076 21.2453 104.012 20.5C104.948 19.7547 106.352 19.382 108.224 19.382H111.5V19.07C111.5 18.186 111.249 17.536 110.746 17.12C110.244 16.704 109.62 16.496 108.874 16.496C108.198 16.496 107.609 16.6607 107.106 16.99C106.604 17.302 106.292 17.77 106.17 18.394H102.92C103.007 17.458 103.319 16.6433 103.856 15.95C104.411 15.2567 105.122 14.728 105.988 14.364C106.855 13.9827 107.826 13.792 108.9 13.792C110.738 13.792 112.185 14.2513 113.242 15.17C114.3 16.0887 114.828 17.3887 114.828 19.07V27H111.994L111.682 24.92C111.301 25.6133 110.764 26.1853 110.07 26.636C109.394 27.0867 108.519 27.312 107.444 27.312ZM108.198 24.712C109.152 24.712 109.888 24.4 110.408 23.776C110.946 23.152 111.284 22.3807 111.422 21.462H108.588C107.704 21.462 107.072 21.6267 106.69 21.956C106.309 22.268 106.118 22.658 106.118 23.126C106.118 23.6287 106.309 24.0187 106.69 24.296C107.072 24.5733 107.574 24.712 108.198 24.712ZM123.237 27V8.8H126.565V24.4H134.625V27H123.237ZM141.406 27.312C140.296 27.312 139.386 27.1387 138.676 26.792C137.965 26.428 137.436 25.9513 137.09 25.362C136.743 24.7727 136.57 24.1227 136.57 23.412C136.57 22.216 137.038 21.2453 137.974 20.5C138.91 19.7547 140.314 19.382 142.186 19.382H145.462V19.07C145.462 18.186 145.21 17.536 144.708 17.12C144.205 16.704 143.581 16.496 142.836 16.496C142.16 16.496 141.57 16.6607 141.068 16.99C140.565 17.302 140.253 17.77 140.132 18.394H136.882C136.968 17.458 137.28 16.6433 137.818 15.95C138.372 15.2567 139.083 14.728 139.95 14.364C140.816 13.9827 141.787 13.792 142.862 13.792C144.699 13.792 146.146 14.2513 147.204 15.17C148.261 16.0887 148.79 17.3887 148.79 19.07V27H145.956L145.644 24.92C145.262 25.6133 144.725 26.1853 144.032 26.636C143.356 27.0867 142.48 27.312 141.406 27.312ZM142.16 24.712C143.113 24.712 143.85 24.4 144.37 23.776C144.907 23.152 145.245 22.3807 145.384 21.462H142.55C141.666 21.462 141.033 21.6267 140.652 21.956C140.27 22.268 140.08 22.658 140.08 23.126C140.08 23.6287 140.27 24.0187 140.652 24.296C141.033 24.5733 141.536 24.712 142.16 24.712ZM159.09 27.312C158.119 27.312 157.27 27.13 156.542 26.766C155.814 26.402 155.224 25.8907 154.774 25.232L154.41 27H151.446V8.28H154.774V15.95C155.19 15.378 155.736 14.8753 156.412 14.442C157.105 14.0087 157.998 13.792 159.09 13.792C160.303 13.792 161.386 14.0867 162.34 14.676C163.293 15.2653 164.047 16.0713 164.602 17.094C165.156 18.1167 165.434 19.278 165.434 20.578C165.434 21.878 165.156 23.0393 164.602 24.062C164.047 25.0673 163.293 25.8647 162.34 26.454C161.386 27.026 160.303 27.312 159.09 27.312ZM158.388 24.4C159.445 24.4 160.32 24.0447 161.014 23.334C161.707 22.6233 162.054 21.7047 162.054 20.578C162.054 19.4513 161.707 18.524 161.014 17.796C160.32 17.068 159.445 16.704 158.388 16.704C157.313 16.704 156.429 17.068 155.736 17.796C155.06 18.5067 154.722 19.4253 154.722 20.552C154.722 21.6787 155.06 22.606 155.736 23.334C156.429 24.0447 157.313 24.4 158.388 24.4ZM173.216 27.312C172.072 27.312 171.067 27.13 170.2 26.766C169.334 26.3847 168.64 25.8647 168.12 25.206C167.6 24.5473 167.288 23.7847 167.184 22.918H170.538C170.642 23.4207 170.92 23.854 171.37 24.218C171.838 24.5647 172.436 24.738 173.164 24.738C173.892 24.738 174.421 24.5907 174.75 24.296C175.097 24.0013 175.27 23.6633 175.27 23.282C175.27 22.7273 175.028 22.3547 174.542 22.164C174.057 21.956 173.381 21.7567 172.514 21.566C171.96 21.4447 171.396 21.2973 170.824 21.124C170.252 20.9507 169.724 20.734 169.238 20.474C168.77 20.1967 168.389 19.85 168.094 19.434C167.8 19.0007 167.652 18.472 167.652 17.848C167.652 16.704 168.103 15.742 169.004 14.962C169.923 14.182 171.206 13.792 172.852 13.792C174.378 13.792 175.591 14.1473 176.492 14.858C177.411 15.5687 177.957 16.548 178.13 17.796H174.984C174.794 16.8427 174.074 16.366 172.826 16.366C172.202 16.366 171.717 16.4873 171.37 16.73C171.041 16.9727 170.876 17.276 170.876 17.64C170.876 18.0213 171.128 18.3247 171.63 18.55C172.133 18.7753 172.8 18.9833 173.632 19.174C174.534 19.382 175.357 19.616 176.102 19.876C176.865 20.1187 177.472 20.4913 177.922 20.994C178.373 21.4793 178.598 22.1813 178.598 23.1C178.616 23.8973 178.408 24.6167 177.974 25.258C177.541 25.8993 176.917 26.402 176.102 26.766C175.288 27.13 174.326 27.312 173.216 27.312Z" fill="#00C7F4"/>
</svg>
